HIERARCHY
ROOT Hips
{
	OFFSET -14.64140 90.27770 -84.91600
	CHANNELS 6 Xposition Yposition Zposition Zrotation Xrotation Yrotation
	JOINT Spine
	{
		OFFSET 0.00000 13.20850 -1.60436
		CHANNELS 3 Zrotation Xrotation Yrotation
		JOINT Spine1
		{
			OFFSET 0.00000 8.61716 0.00000
			CHANNELS 3 Zrotation Xrotation Yrotation
			JOINT Spine2
			{
				OFFSET 0.00000 8.61717 0.00000
				CHANNELS 3 Zrotation Xrotation Yrotation
				JOINT Spine3
				{
					OFFSET 0.00000 8.61717 0.00000
					CHANNELS 3 Zrotation Xrotation Yrotation
					JOINT Neck
					{
						OFFSET 0.00000 11.07920 1.10792
						CHANNELS 3 Zrotation Xrotation Yrotation
						JOINT Neck1
						{
							OFFSET 0.00000 7.08032 0.00000
							CHANNELS 3 Zrotation Xrotation Yrotation
							JOINT Head
							{
								OFFSET 0.00000 7.08031 0.00000
								CHANNELS 3 Zrotation Xrotation Yrotation
								End site
								{
									OFFSET 0.00000 0.00000 0.00000
								}
							}
						}
					}
					JOINT RightShoulder
					{
						OFFSET -0.01000 7.91373 5.19711
						CHANNELS 3 Zrotation Xrotation Yrotation
						JOINT RightArm
						{
							OFFSET -18.41580 0.00000 0.00000
							CHANNELS 3 Zrotation Xrotation Yrotation
							JOINT RightForeArm
							{
								OFFSET -29.11090 0.00000 0.00000
								CHANNELS 3 Zrotation Xrotation Yrotation
								JOINT RightHand
								{
									OFFSET -24.65040 0.00000 0.00000
									CHANNELS 3 Zrotation Xrotation Yrotation
									JOINT RightHandThumb1
									{
										OFFSET -5.35114 -0.85590 3.97906
										CHANNELS 3 Zrotation Xrotation Yrotation
										JOINT RightHandThumb2
										{
											OFFSET -4.52789 0.00000 0.00000
											CHANNELS 3 Zrotation Xrotation Yrotation
											JOINT RightHandThumb3
											{
												OFFSET -2.46976 0.00000 0.00000
												CHANNELS 3 Zrotation Xrotation Yrotation
												End site
												{
													OFFSET 0.00000 0.00000 0.00000
												}
											}
										}
									}
									JOINT RightHandIndex1
									{
										OFFSET -14.26970 0.00000 2.88139
										CHANNELS 3 Zrotation Xrotation Yrotation
										JOINT RightHandIndex2
										{
											OFFSET -5.48836 0.00000 0.00000
											CHANNELS 3 Zrotation Xrotation Yrotation
											JOINT RightHandIndex3
											{
												OFFSET -3.01859 0.00000 0.00000
												CHANNELS 3 Zrotation Xrotation Yrotation
												End site
												{
													OFFSET 0.00000 0.00000 0.00000
												}
											}
										}
									}
									JOINT RightHandMiddle1
									{
										OFFSET -14.26970 0.00000 -0.09147
										CHANNELS 3 Zrotation Xrotation Yrotation
										JOINT RightHandMiddle2
										{
											OFFSET -6.17441 0.00000 0.00000
											CHANNELS 3 Zrotation Xrotation Yrotation
											JOINT RightHandMiddle3
											{
												OFFSET -3.56743 0.00000 0.00000
												CHANNELS 3 Zrotation Xrotation Yrotation
												End site
												{
													OFFSET 0.00000 0.00000 0.00000
												}
											}
										}
									}
									JOINT RightHandRing1
									{
										OFFSET -12.69180 0.00000 -3.06433
										CHANNELS 3 Zrotation Xrotation Yrotation
										JOINT RightHandRing2
										{
											OFFSET -5.62556 0.00000 0.00000
											CHANNELS 3 Zrotation Xrotation Yrotation
											JOINT RightHandRing3
											{
												OFFSET -3.56744 0.00000 0.00000
												CHANNELS 3 Zrotation Xrotation Yrotation
												End site
												{
													OFFSET 0.00000 0.00000 0.00000
												}
											}
										}
									}
									JOINT RightHandPinky1
									{
										OFFSET -11.11390 0.00000 -6.03719
										CHANNELS 3 Zrotation Xrotation Yrotation
										JOINT RightHandPinky2
										{
											OFFSET -4.52789 0.00000 0.00000
											CHANNELS 3 Zrotation Xrotation Yrotation
											JOINT RightHandPinky3
											{
												OFFSET -2.46976 0.00000 0.00000
												CHANNELS 3 Zrotation Xrotation Yrotation
												End site
												{
													OFFSET 0.00000 0.00000 0.00000
												}
											}
										}
									}
								}
							}
						}
					}
					JOINT LeftShoulder
					{
						OFFSET 0.01000 7.91373 5.19711
						CHANNELS 3 Zrotation Xrotation Yrotation
						JOINT LeftArm
						{
							OFFSET 18.41580 0.00000 0.00000
							CHANNELS 3 Zrotation Xrotation Yrotation
							JOINT LeftForeArm
							{
								OFFSET 29.11090 0.00000 0.00000
								CHANNELS 3 Zrotation Xrotation Yrotation
								JOINT LeftHand
								{
									OFFSET 24.65040 0.00000 0.00000
									CHANNELS 3 Zrotation Xrotation Yrotation
									JOINT LeftHandThumb1
									{
										OFFSET 5.35114 -0.85590 3.97906
										CHANNELS 3 Zrotation Xrotation Yrotation
										JOINT LeftHandThumb2
										{
											OFFSET 4.52789 0.00000 0.00000
											CHANNELS 3 Zrotation Xrotation Yrotation
											JOINT LeftHandThumb3
											{
												OFFSET 2.46977 0.00000 0.00000
												CHANNELS 3 Zrotation Xrotation Yrotation
												End site
												{
													OFFSET 0.00000 0.00000 0.00000
												}
											}
										}
									}
									JOINT LeftHandIndex1
									{
										OFFSET 14.26970 0.00000 2.88139
										CHANNELS 3 Zrotation Xrotation Yrotation
										JOINT LeftHandIndex2
										{
											OFFSET 5.48836 0.00000 0.00000
											CHANNELS 3 Zrotation Xrotation Yrotation
											JOINT LeftHandIndex3
											{
												OFFSET 3.01859 0.00000 0.00000
												CHANNELS 3 Zrotation Xrotation Yrotation
												End site
												{
													OFFSET 0.00000 0.00000 0.00000
												}
											}
										}
									}
									JOINT LeftHandMiddle1
									{
										OFFSET 14.26970 0.00000 -0.09147
										CHANNELS 3 Zrotation Xrotation Yrotation
										JOINT LeftHandMiddle2
										{
											OFFSET 6.17440 0.00000 0.00000
											CHANNELS 3 Zrotation Xrotation Yrotation
											JOINT LeftHandMiddle3
											{
												OFFSET 3.56744 0.00000 0.00000
												CHANNELS 3 Zrotation Xrotation Yrotation
												End site
												{
													OFFSET 0.00000 0.00000 0.00000
												}
											}
										}
									}
									JOINT LeftHandRing1
									{
										OFFSET 12.69180 0.00000 -3.06433
										CHANNELS 3 Zrotation Xrotation Yrotation
										JOINT LeftHandRing2
										{
											OFFSET 5.62556 0.00000 0.00000
											CHANNELS 3 Zrotation Xrotation Yrotation
											JOINT LeftHandRing3
											{
												OFFSET 3.56744 0.00000 0.00000
												CHANNELS 3 Zrotation Xrotation Yrotation
												End site
												{
													OFFSET 0.00000 0.00000 0.00000
												}
											}
										}
									}
									JOINT LeftHandPinky1
									{
										OFFSET 11.11390 0.00000 -6.03719
										CHANNELS 3 Zrotation Xrotation Yrotation
										JOINT LeftHandPinky2
										{
											OFFSET 4.52789 0.00000 0.00000
											CHANNELS 3 Zrotation Xrotation Yrotation
											JOINT LeftHandPinky3
											{
												OFFSET 2.46976 0.00000 0.00000
												CHANNELS 3 Zrotation Xrotation Yrotation
												End site
												{
													OFFSET 0.00000 0.00000 0.00000
												}
											}
										}
									}
								}
							}
						}
					}
					JOINT pCube4
					{
						OFFSET 0.00000 10.91090 1.10792
						CHANNELS 3 Zrotation Xrotation Yrotation
						End site
						{
							OFFSET 0.00000 0.00000 0.00000
						}
					}
				}
			}
		}
	}
	JOINT RightUpLeg
	{
		OFFSET -9.98441 0.00000 0.00000
		CHANNELS 3 Zrotation Xrotation Yrotation
		JOINT RightLeg
		{
			OFFSET 0.00000 -42.11790 0.00000
			CHANNELS 3 Zrotation Xrotation Yrotation
			JOINT RightFoot
			{
				OFFSET 0.00000 -45.00020 -0.00001
				CHANNELS 3 Zrotation Xrotation Yrotation
				JOINT RightForeFoot
				{
					OFFSET 0.00000 -3.74820 0.00000
					CHANNELS 3 Zrotation Xrotation Yrotation
					JOINT RightToeBase
					{
						OFFSET 0.00000 0.06325 14.43120
						CHANNELS 3 Zrotation Xrotation Yrotation
						End site
						{
							OFFSET 0.00000 0.00000 0.00000
						}
					}
				}
			}
		}
	}
	JOINT LeftUpLeg
	{
		OFFSET 9.98441 0.00000 0.00000
		CHANNELS 3 Zrotation Xrotation Yrotation
		JOINT LeftLeg
		{
			OFFSET 0.00000 -42.11800 0.00000
			CHANNELS 3 Zrotation Xrotation Yrotation
			JOINT LeftFoot
			{
				OFFSET 0.00000 -45.00070 0.00000
				CHANNELS 3 Zrotation Xrotation Yrotation
				JOINT LeftForeFoot
				{
					OFFSET 0.00000 -3.74824 0.00000
					CHANNELS 3 Zrotation Xrotation Yrotation
					JOINT LeftToeBase
					{
						OFFSET 0.00000 0.06325 14.43110
						CHANNELS 3 Zrotation Xrotation Yrotation
						End site
						{
							OFFSET 0.00000 0.00000 0.00000
						}
					}
				}
			}
		}
	}
}
MOTION
Frames: 4
Frame Time: 0.050000
-0.014867704417998107 -0.028113003347120347 0.047527299269911574 0.020104649663262142 0.029679817865763344 -0.0038566964277160897 4.541511356888533 3.142270749594793 -2.110885634952418 -0.7528357501560953 3.533017819841751 0.3336937837317102 -0.6076412426702091 -1.0728436347919208 -0.16701336536896094 -0.41555044853585343 -0.2871938749372692 -0.3938032408049934 -0.12001524699428494 12.330007676979735 -1.000047419068931 0.3446055197546509 -0.42466941180785595 -1.4630581022684293 0.6534679478202143 -16.797902519479095 -0.16466792781608042 -9.309897100522907 3.20999852975212 -18.523254195793225 77.46587893651092 5.426885858274274 -0.14830953559772886 -17.668564155708875 -4.437667720789886 59.277537018712785 22.37826928311384 -0.291863637345821 -7.193100300158858 4.5478180704281925 -0.15445460833772223 -1.547883938293121 -0.042598839570685575 -0.02985496767846035 -56.23845728142514 -0.03520125767507233 -0.010341182993852324 -56.243903916754455 -38.78072511856191 0.02105509537752165 0.034554087810305625 0.009391922551009678 -0.04860400530667861 -0.04527990984324799 0.005894659124089142 0.020826671202959657 0.03148227716269803 -36.71000603455237 -0.013418219381712622 0.01966382665539612 0.01902615129862938 0.02592316916151778 0.04106515679888313 -0.034467642155529554 0.027486902259845 0.04878669152225438 -19.75212623054954 0.011868278186360635 -0.04209862333888321 -0.01877006456092704 0.01001963628030288 0.04519773218298266 -0.011255952732536916 0.02760080305399946 -0.022861024963627748 24.056341990648736 -0.029991483018404253 0.02875917829390496 28.88593120568268 -0.04906976176173803 -0.044143987089389776 28.888963225434782 -0.026544072933929342 0.03820367165179178 10.169101123132753 2.447405280512645 15.299438698483147 -72.70190261926936 19.851166457531612 -13.874450587951792 -40.633505962373086 6.648919008366433 -90.51742806712693 -21.700372650915263 -9.724846399552069 6.577520224328774 -0.45122738042571525 0.09149681110131475 -8.112319580973711 0.0027001458804139277 -0.014908308329502082 44.57037893011069 0.02802440898707508 0.00918574713021062 44.57107092446598 12.414991231841311 -0.04376628913700899 0.013147271088531356 0.012575806399085104 -0.04376341433502432 0.009634057305208507 0.0026586318754896624 -0.022698189499090825 -0.0038333858925644797 11.089766483851898 -0.013204500114827518 0.0036817207870221604 0.030665152818510177 0.02203805569026535 -0.012961769430328764 -0.006729618286921112 -0.03919190426798048 0.00280056921492683 4.773331829528924 -0.011227020405850574 -0.04573270628202365 -0.03556639553618003 -0.03800484266353367 0.03243426669206639 0.006022404847192475 0.03231507616415141 0.03575418468970076 -5.602026581669059 0.01664944150850117 -0.0039572420249965115 -6.68427174161297 0.01931228574377856 -0.01867072385276543 -6.694416112095372 0.00879501902457422 -0.017844841444481428 -0.019773250733119835 0.02651183550344949 -0.022648285991852857 8.004134550700524 3.462752271032216 -19.229718943759053 0.04607909690121691 10.409861728243136 0.043895086486859886 -5.640963396154435 -15.65921354424677 3.1961388460101436 0.010556147900983718 0.006144810495557611 0.016814039857085877 -0.046229093092969305 4.652432245213702 -0.005820845924703801 12.483041310940072 -8.2463030268685 6.835943596507516 -0.006776547685839461 46.382708209692275 -0.03658836485037836 -4.318826724234264 -14.71508528101903 -3.8162281278501404 -0.015846682608681082 0.013687714576415051 0.043420220382082035 0.000275403606980278 -10.785278740932155 -0.035178684947168214 
-0.000725550464163424 -0.019256055005982715 -0.0197833349498736 0.038058451724943584 0.01642294839440368 -0.015291522083616234 4.475122880629981 3.119886308638904 -2.059089859807416 -0.7922167021110964 3.5621105999218536 0.38215916558447666 -0.7006756212826152 -1.0343321920517912 -0.03232785966444891 -0.410248272254123 -0.28620346276656317 -0.4121828610479178 -0.085727749854174 12.25597508781876 -1.0209991338103133 0.37179977427620226 -0.4674075941596324 -1.5928587236354395 0.7762538617051622 -16.781385975185852 -0.2130106716908884 -9.312229802873924 3.1365402557418203 -18.495403889798766 77.72594253988989 5.199003934282246 -0.07384840270369955 -18.052783896830075 -4.697373268396757 59.72365530802083 22.497823178092087 -0.23372574907192953 -7.400393583203974 4.541519345443995 -0.09069412122892168 -1.612781513356576 0.03322238151832885 0.008357889395061983 -56.20639649681664 -0.026232623644603777 -0.024510692919686355 -56.26990944788543 -38.79340735909919 0.00408461584610461 0.021452139114406764 -0.01555394875731127 0.04795733009560858 -0.02627161689935245 0.027536421652932123 0.019295859795811908 0.026454348344271173 -36.71095305337703 -0.0070419144906398645 -0.0008636450823639633 -0.0026083757283363648 0.015037538504073522 0.047166234898399655 0.04775582404910552 -0.0333212658024882 0.005086473288100909 -19.796569591413103 -0.0023678246795090095 0.04292411196265706 0.03648695619319498 -0.018841687539507566 -0.020084140438845613 -0.016298581991150106 -0.00011510489974196142 -0.027626478637435198 24.029002253904487 -0.023590571269172324 0.0339791818325228 28.89252769914307 -0.001542865551129219 -0.018694375246981795 28.85406087211587 0.0071145553674959615 -0.016528977147984774 9.967826037174296 2.3872641553087077 15.291046873421424 -73.55048431277824 19.565445653556175 -12.550743039772243 -43.764291708198726 6.8255691306208455 -91.00616855913997 -21.740010813742987 -9.822955943112794 6.648892719555356 -0.4582680774244898 0.09176397715321241 -8.156838772695533 -0.023537520047326888 -0.008963069615711156 44.51920521434564 0.016211137528084663 -0.04394445637707551 44.575539245918485 12.431090625776466 -0.042317388910832976 -0.005918945821129247 -0.022044236705685536 0.02418722344321122 -0.006481892371315084 -0.024343024641351046 -0.048525920669533505 0.04155460827212993 11.105856977407317 0.03282134498794737 -0.03210211495069145 -0.03805667833334499 -0.023852168807905933 -0.004878239561250561 -0.0235247389550097 -0.035409018752397554 0.023325046249645792 4.738790735703723 -0.04610827490298513 0.01303171577764651 -0.04798654289545102 -0.041453548847080544 -0.010394303073811893 0.024273834981178393 -0.0021418991382663767 0.028939599154643877 -5.563410367351162 0.04642347418267415 0.03139034637475983 -6.712827823553911 0.0028561305739634017 -0.02041406011952054 -6.705469600529406 0.03429563460624435 0.041225334266307735 -0.026891235602110253 0.00153546023547488 -0.005130214237803503 8.081047314352757 3.542991489258921 -19.239845703850005 0.00035381865480839646 10.376473931266958 0.01890290829149914 -5.665909661217894 -15.678889642011807 3.190700212737051 -0.005206788213287222 0.031285633179041525 0.008097963886277473 0.013880575346023615 4.683823519389205 0.008950959615755493 12.473651170953795 -8.248578912725812 6.849090965631448 0.03346425830916679 46.39951675822476 0.007108106077898219 -4.353809291889244 -14.745052565304327 -3.8094652832079343 0.04345620092823986 0.010966475472507193 0.0332768587047264 -0.005706170523265649 -10.782160816365183 0.008627443062295773 
0.045363470136838106 0.03702632060253593 -0.041381804283286756 0.003126116694007506 -0.04489059866375784 -0.004264592647055466 4.295416808247719 3.0357581037446844 -2.0933044928384303 -0.7421389243250504 3.5649588334346265 0.39551313477945715 -0.6619066641158797 -1.1173285981557133 -0.016266624086149005 -0.43371436741442476 -0.26701113604569476 -0.4579961167569105 -0.12979731226081284 12.155942195122378 -0.9799429295467136 0.3252271362490052 -0.5659204527134661 -1.5520241868309392 0.736490227130918 -16.839277408279134 -0.1743974075631083 -9.231609120748589 3.1237608683777993 -18.40153986425674 78.39241851292012 4.138066437007093 0.165364027543657 -16.758748521127444 -3.911393965748226 58.46594546703262 22.158284422812304 -0.20207912430545885 -6.93624835688816 4.500666707188309 -0.156084864532766 -1.591013952827242 -0.03224094526066432 0.004407242213925154 -56.23138779517215 -0.039364592043651725 0.040420013692129365 -56.282050615603026 -38.75742549696976 0.012590327201047195 -0.013702062386471502 0.016784254016482807 -0.0118458417331999 0.0347907513832502 0.044783916837842705 -0.014124764595045313 -0.002976868968692748 -36.73875063325789 -0.03680472309862347 0.003134612390907826 -0.006565733033822357 0.010840978143776745 -0.013630249668638855 0.02375323595720648 0.001593286518654478 -0.048238833562360764 -19.79923986692082 -0.010354280157024559 0.040867261517596655 -0.020720196985098697 0.045586846343579235 -0.023072097694750784 0.005976642451039389 0.029891491593017502 0.020698454963450966 24.04639603901863 0.005678068337375167 0.02223269581580705 28.835759913293227 -0.0017617461041523398 -0.02184753523556013 28.82416441216751 -0.04130555743179003 -0.02835270293077827 9.823367459083943 2.346218974668693 15.237189595176964 -74.2465221688446 18.845066725990637 -12.072062255549486 -46.47737036057042 6.616139927650969 -91.41376730060377 -21.22064596149178 -9.584081364222158 6.355491897815066 -0.4394708132643344 0.10936178515006854 -8.14199064280527 0.0016989094060676558 0.03932613105839606 44.55335797240665 0.02967560950871083 0.004586851095446951 44.55656884388032 12.461895037634571 -0.03569685622125164 -0.008753899340357845 0.0014054108019965754 0.04164713502984385 -0.023587731548712146 0.037823162660701556 0.03428065423518472 -0.03154214097775044 11.08613710812147 -0.025278155349524576 -0.010118927096586006 0.009090233517349383 -0.031724979165258564 0.013074097942972158 0.0030395304913124234 -0.018843723707331957 -0.0069791436159572125 4.7789148572177185 -0.006321644633814267 0.029441943901632635 -0.00261174942219455 0.019026161198182432 -0.009450066960741235 0.004391181339559433 0.029468566748158505 -0.029032917766491067 -5.5968028316985 0.010766201390687841 0.028003205834366315 -6.7197979922750575 0.02409137472708332 -0.02705659878965484 -6.707341756162167 0.026503657090833722 0.0181433676812266 -0.03981301145730585 -0.007667736333571395 0.026626078022787603 8.048188744893398 3.486888506748185 -19.206076982058566 0.013790014454048767 10.36640562342933 0.05393325364770596 -5.6223063993446125 -15.627716159306203 3.167054118221825 -0.005178990997231458 0.019804949651262903 0.010304607274982036 -0.011170058245628178 4.6742888408009415 0.037369717822235415 12.447556361251285 -8.278013908645596 6.841563032475215 -0.01320178222681222 46.33360196747516 0.045550245843259715 -4.330626703318619 -14.781773317890305 -3.8588011162145053 0.029543083271513438 -0.023192631962911606 0.03851374376591732 -0.03188147231080509 -10.76287933040882 -0.047561189539388905 
0.001065606143057963 0.0473810846133835 -0.008634894843740365 -0.04350929352414051 0.014938451418187101 -0.006960963637169058 4.238822744164777 2.898764738079603 -2.1048680320410864 -0.7801179160149686 3.532851887768926 0.41788820385569975 -0.6657810160909535 -1.1262365162481036 -0.05788950216173539 -0.42560572505260214 -0.3116913030401413 -0.42725976725646325 -0.16604269409056432 12.121086846141083 -0.8420291866025871 0.3203994198087733 -0.5014173632472683 -1.3378903954404247 0.6813161891459145 -16.800198799118327 -0.20210011282898324 -9.14350077206897 3.095027800759975 -18.320436647178592 79.19917074081235 2.857744762693727 0.3038118572523595 -14.593676980099653 -2.045824857561351 55.91745745937907 21.350437989656875 -0.214636160364994 -6.347656451733424 4.553652385884695 -0.09577744172625724 -1.6244279626803215 0.016587863946843483 0.01631564151537458 -56.212591921461566 0.016772444321761795 0.02377602679438094 -56.25909064788813 -38.73707297351445 -0.0434107774982378 0.026151027870686235 0.04231993424437429 0.005878586767326225 0.005595091002223463 0.048965598790551165 0.004909580289994992 -0.03107130506912964 -36.71801959697177 0.01627034004029587 -0.01725597249189833 -0.005332173813257087 -0.02626876452812043 -0.0262337335646106 -0.041839159018711 0.04684756353939854 0.014797523876387825 -19.717927269412474 0.04392447253155082 0.04081002247997177 -0.023510206806538765 -0.0106963456219213 -0.019424732521937636 0.0018560942803910346 0.0032482021247420252 -0.039784783622521816 24.07373893873076 0.007235156729036577 -0.038392309328287993 28.862250742576254 0.011326896571696669 -0.049750210820848774 28.88444256969556 -0.03946841509895469 -0.0019650264143765274 9.870422609134142 2.331631733032978 15.215717791659038 -74.47963813705582 17.94572231403768 -12.443170231977055 -47.494233681127525 6.02306854245373 -91.52460474904696 -20.382570739798627 -9.144709484055833 5.753899596592836 -0.48008311884100685 0.04202373755338885 -8.12418224459087 0.02495746050446603 0.042022632632754534 44.53112354764349 0.033636128171866536 -0.03615428099692913 44.51826826659564 12.429275931447782 0.025557168705840582 -0.0009969228574977663 -0.015450149657850147 0.040228760719095695 0.004750564484586421 0.017480972297032 -0.01050897545223013 -0.00029649238132774643 11.141904128545995 -0.0010950951618180975 -0.02041567530419332 0.028424265229291874 -0.03730648452668906 -0.02881891741556422 0.04985324805356121 0.013628793128811215 -0.0075223516027643775 4.778319053295126 0.0028659067949906637 -0.012753392528323136 -0.019906918670921515 0.02619086997588488 -0.008985126712764548 -0.008554798528686907 0.04275303961145863 0.010802745153588028 -5.6276666084760425 -0.022961871857711952 -0.028001350292230977 -6.705151378755049 0.0014914955976556544 -0.043966444635141884 -6.6870221953158415 -0.017825732336024205 0.01844360193503082 0.027291737387688576 -0.018622940776466868 0.027322819768407818 8.088144585094682 3.499856160194122 -19.2200691462039 0.016120452872369243 10.364954716294989 0.017251929466329776 -5.61079122532012 -15.705887904982674 3.220648749090791 -0.02399503114763364 -0.023923412061331258 -0.022955891204816056 0.037217263529078885 4.651718683248358 0.011098708862160784 12.432189913506452 -8.250025458320277 6.888391268080806 0.041599300776888 46.419277236421244 0.0012201789730657692 -4.361205253938965 -14.724226728562238 -3.837814271558018 -0.00634342398146472 0.04463815205011064 0.0011609319406280646 0.018491035220907864 -10.724992911145561 -0.03413193758955584 
